<?xml version="1.0" encoding="UTF-8"?>
<svg version="1.1" xmlns="http://www.w3.org/2000/svg" width="500" height="500">
<path d="M0 0 C0.78117188 0.79019531 1.56234375 1.58039063 2.3671875 2.39453125 C3.223125 3.22855469 4.0790625 4.06257813 4.9609375 4.921875 C16.33269779 16.60746634 27.3671875 38.75068099 27.3671875 55.39453125 C28.3571875 55.45640625 29.3471875 55.51828125 30.3671875 55.58203125 C36.08430065 56.40706181 40.78979599 59.35918737 44.3046875 63.89453125 C46.0974089 68.11269925 46.49302933 72.1210809 46.52108765 76.67399597 C46.52968811 77.71818695 46.53828857 78.76237793 46.54714966 79.83821106 C46.55353958 81.54094429 46.55353958 81.54094429 46.56005859 83.27807617 C46.57232483 85.08387146 46.57232483 85.08387146 46.58483887 86.92614746 C46.60964566 90.90909499 46.62635637 94.89200469 46.640625 98.875 C46.6459889 100.25076108 46.65136642 101.62652212 46.65675735 103.0022831 C46.67837123 108.72851116 46.69710486 114.45473651 46.70837975 120.18099499 C46.72460198 128.36351089 46.75775423 136.5455508 46.81478059 144.72788733 C46.85358919 150.49455096 46.87302527 156.26108786 46.87830031 162.02787858 C46.88193896 165.46565835 46.89379954 168.90292925 46.92640305 172.34056664 C46.95808697 176.18208153 46.95808542 180.02240194 46.95068359 183.86401367 C46.96708893 184.989048 46.98349426 186.11408234 47.00039673 187.27320862 C46.93682975 195.36029754 45.21579199 202.0858438 39.71736717 208.24158001 C35.31987528 212.43251137 29.84539171 214.90343638 24.3671875 217.39453125 C20.86790586 215.06167682 20.7342777 214.18658056 19.6796875 210.26953125 C19.42832031 209.35945312 19.17695313 208.449375 18.91796875 207.51171875 C18.64533203 206.46371094 18.64533203 206.46371094 18.3671875 205.39453125 C17.1296875 205.64847656 15.8921875 205.90242187 14.6171875 206.1640625 C0.93024394 208.91029273 -12.74905047 210.94921163 -26.6328125 212.39453125 C-27.61314453 212.50039551 -28.59347656 212.60625977 -29.60351562 212.71533203 C-63.03858483 216.16941335 -98.24968928 216.35400941 -131.6328125 212.39453125 C-132.90012207 212.24967285 -134.16743164 212.10481445 -135.47314453 211.95556641 C-139.63313926 211.47673999 -143.78976247 210.97291823 -147.9453125 210.45703125 C-149.21600586 210.29944336 -150.48669922 210.14185547 -151.79589844 209.97949219 C-159.88729177 208.91387982 -167.70644624 207.34145536 -175.6328125 205.39453125 C-177.2828125 209.35453125 -178.9328125 213.31453125 -180.6328125 217.39453125 C-188.86030794 216.02328201 -195.48472276 211.57882238 -200.6953125 204.95703125 C-205.21425526 197.41652927 -204.93026185 188.62506124 -204.92333984 180.10107422 C-204.93005707 178.90156128 -204.93677429 177.70204834 -204.94369507 176.46618652 C-204.95935223 173.20185064 -204.96604474 169.93766813 -204.96732664 166.67329931 C-204.96875488 164.62973426 -204.97303689 162.58619538 -204.97832108 160.54263687 C-204.99677217 153.40226818 -205.004997 146.26197378 -205.00341797 139.12158203 C-205.00221462 132.48161098 -205.02336718 125.84196392 -205.0549053 119.20207489 C-205.08109174 113.48376919 -205.09178444 107.7655693 -205.09050715 102.04720414 C-205.08999865 98.63930259 -205.09562072 95.23169013 -205.11686325 91.82384872 C-205.13645854 88.02535758 -205.13071058 84.22770385 -205.11865234 80.42919922 C-205.12989136 79.30901398 -205.14113037 78.18882874 -205.15270996 77.03469849 C-205.10075777 70.59424869 -204.46219103 66.63886382 -200.6328125 61.39453125 C-198.95703125 59.90625 -198.95703125 59.90625 -197.3203125 59.08203125 C-196.78792969 58.79714844 -196.25554687 58.51226562 -195.70703125 58.21875 C-192.74639927 57.04230302 -189.70312132 56.234556 -186.6328125 55.39453125 C-186.47425781 54.47414063 -186.31570312 53.55375 -186.15234375 52.60546875 C-181.6774012 28.32705115 -171.79147451 7.41238892 -151.6328125 -7.48046875 C-111.95243274 -33.49105261 -35.45758424 -34.18729696 0 0 Z " fill="#101010" transform="translate(328.6328125,153.60546875)"/>
<path d="M0 0 C0.78117188 0.79019531 1.56234375 1.58039063 2.3671875 2.39453125 C3.223125 3.22855469 4.0790625 4.06257813 4.9609375 4.921875 C16.33269779 16.60746634 27.3671875 38.75068099 27.3671875 55.39453125 C28.3571875 55.45640625 29.3471875 55.51828125 30.3671875 55.58203125 C36.08430065 56.40706181 40.78979599 59.35918737 44.3046875 63.89453125 C46.0974089 68.11269925 46.49302933 72.1210809 46.52108765 76.67399597 C46.52968811 77.71818695 46.53828857 78.76237793 46.54714966 79.83821106 C46.55353958 81.54094429 46.55353958 81.54094429 46.56005859 83.27807617 C46.57232483 85.08387146 46.57232483 85.08387146 46.58483887 86.92614746 C46.60964566 90.90909499 46.62635637 94.89200469 46.640625 98.875 C46.6459889 100.25076108 46.65136642 101.62652212 46.65675735 103.0022831 C46.67837123 108.72851116 46.69710486 114.45473651 46.70837975 120.18099499 C46.72460198 128.36351089 46.75775423 136.5455508 46.81478059 144.72788733 C46.85358919 150.49455096 46.87302527 156.26108786 46.87830031 162.02787858 C46.88193896 165.46565835 46.89379954 168.90292925 46.92640305 172.34056664 C46.95808697 176.18208153 46.95808542 180.02240194 46.95068359 183.86401367 C46.96708893 184.989048 46.98349426 186.11408234 47.00039673 187.27320862 C46.93682975 195.36029754 45.21579199 202.0858438 39.71736717 208.24158001 C35.31987528 212.43251137 29.84539171 214.90343638 24.3671875 217.39453125 C20.86790586 215.06167682 20.7342777 214.18658056 19.6796875 210.26953125 C19.42832031 209.35945312 19.17695313 208.449375 18.91796875 207.51171875 C18.64533203 206.46371094 18.64533203 206.46371094 18.3671875 205.39453125 C17.1296875 205.64847656 15.8921875 205.90242187 14.6171875 206.1640625 C0.93024394 208.91029273 -12.74905047 210.94921163 -26.6328125 212.39453125 C-27.61314453 212.50039551 -28.59347656 212.60625977 -29.60351562 212.71533203 C-63.03858483 216.16941335 -98.24968928 216.35400941 -131.6328125 212.39453125 C-132.90012207 212.24967285 -134.16743164 212.10481445 -135.47314453 211.95556641 C-139.63313926 211.47673999 -143.78976247 210.97291823 -147.9453125 210.45703125 C-149.21600586 210.29944336 -150.48669922 210.14185547 -151.79589844 209.97949219 C-159.88729177 208.91387982 -167.70644624 207.34145536 -175.6328125 205.39453125 C-177.2828125 209.35453125 -178.9328125 213.31453125 -180.6328125 217.39453125 C-188.86030794 216.02328201 -195.48472276 211.57882238 -200.6953125 204.95703125 C-205.21425526 197.41652927 -204.93026185 188.62506124 -204.92333984 180.10107422 C-204.93005707 178.90156128 -204.93677429 177.70204834 -204.94369507 176.46618652 C-204.95935223 173.20185064 -204.96604474 169.93766813 -204.96732664 166.67329931 C-204.96875488 164.62973426 -204.97303689 162.58619538 -204.97832108 160.54263687 C-204.99677217 153.40226818 -205.004997 146.26197378 -205.00341797 139.12158203 C-205.00221462 132.48161098 -205.02336718 125.84196392 -205.0549053 119.20207489 C-205.08109174 113.48376919 -205.09178444 107.7655693 -205.09050715 102.04720414 C-205.08999865 98.63930259 -205.09562072 95.23169013 -205.11686325 91.82384872 C-205.13645854 88.02535758 -205.13071058 84.22770385 -205.11865234 80.42919922 C-205.12989136 79.30901398 -205.14113037 78.18882874 -205.15270996 77.03469849 C-205.10075777 70.59424869 -204.46219103 66.63886382 -200.6328125 61.39453125 C-198.95703125 59.90625 -198.95703125 59.90625 -197.3203125 59.08203125 C-196.78792969 58.79714844 -196.25554687 58.51226562 -195.70703125 58.21875 C-192.74639927 57.04230302 -189.70312132 56.234556 -186.6328125 55.39453125 C-186.47425781 54.47414063 -186.31570312 53.55375 -186.15234375 52.60546875 C-181.6774012 28.32705115 -171.79147451 7.41238892 -151.6328125 -7.48046875 C-111.95243274 -33.49105261 -35.45758424 -34.18729696 0 0 Z M-153.46875 9.24609375 C-155.22480573 11.26956914 -156.94217132 13.31593241 -158.6328125 15.39453125 C-159.29667969 16.20921875 -159.96054688 17.02390625 -160.64453125 17.86328125 C-169.06333815 28.76764067 -176.09160205 43.29949686 -175.6328125 57.39453125 C-176.3753125 57.43578125 -177.1178125 57.47703125 -177.8828125 57.51953125 C-181.833787 58.7766595 -182.59967277 60.83451169 -184.6328125 64.39453125 C-185.48494703 67.03726219 -186.1784565 69.51035261 -186.7578125 72.20703125 C-186.92321533 72.94767822 -187.08861816 73.6883252 -187.2590332 74.45141602 C-191.58937586 94.66751497 -191.79424947 115.50236758 -191.73046875 136.08984375 C-191.72859701 137.90257732 -191.7271767 139.7153114 -191.72618103 141.52804565 C-191.72241524 146.23290475 -191.71263789 150.93773154 -191.70147705 155.64257812 C-191.69113306 160.47004764 -191.68665597 165.29752253 -191.68164062 170.125 C-191.67100846 179.54819105 -191.6540062 188.97135844 -191.6328125 198.39453125 C-190.735625 197.21890625 -190.735625 197.21890625 -189.8203125 196.01953125 C-187.6328125 193.39453125 -187.6328125 193.39453125 -184.6328125 191.39453125 C-179.96159888 191.77267711 -175.63302097 192.8852986 -171.1328125 194.14453125 C-112.16115945 209.48219214 -42.94460226 207.82091454 15.86523438 191.98193359 C20.37699907 190.92267268 24.47158922 190.44673211 28.7421875 192.58203125 C30.65049779 194.71053119 31.48988241 196.68950722 32.3671875 199.39453125 C32.6971875 199.39453125 33.0271875 199.39453125 33.3671875 199.39453125 C33.43757903 188.53476255 33.49044097 177.67505059 33.52262402 166.81509781 C33.53809225 161.76906363 33.55897231 156.72318867 33.59350586 151.67724609 C36.03899276 104.5010022 36.03899276 104.5010022 23.51953125 60.390625 C21.09563003 58.14268757 19.62327946 57.66587225 16.3671875 57.39453125 C16.22023438 56.55792969 16.07328125 55.72132813 15.921875 54.859375 C13.45035687 42.03304817 9.50895692 29.80965187 1.3671875 19.39453125 C0.58601562 18.35425781 -0.19515625 17.31398438 -1 16.2421875 C-7.26763767 8.1791449 -13.53681704 3.20061208 -22.6328125 -1.60546875 C-23.41785156 -2.07339844 -24.20289063 -2.54132813 -25.01171875 -3.0234375 C-41.29988 -12.22978951 -62.1695108 -14.00124404 -80.4453125 -13.85546875 C-81.15035919 -13.85203461 -81.85540588 -13.84860046 -82.58181763 -13.84506226 C-108.3278588 -13.69797956 -134.50075156 -9.88333447 -153.46875 9.24609375 Z " fill="#EEEEEE" transform="translate(328.6328125,153.60546875)"/>
<path d="M0 0 C0.89074219 0.24492187 1.78148437 0.48984375 2.69921875 0.7421875 C18.89003357 5.62753349 40.08920331 15.00059442 49 30 C49.64388672 31.07894531 49.64388672 31.07894531 50.30078125 32.1796875 C53.60200468 38.55524614 54.31034282 45.20119482 52.41015625 52.16015625 C46.82316274 65.11065273 32.7390479 72.46655176 20.3125 77.5703125 C12.7063538 80.40563932 4.96007257 82.43338997 -3 84 C-4.31871094 84.2784375 -4.31871094 84.2784375 -5.6640625 84.5625 C-30.81024061 87.86035942 -60.36177909 83.35099152 -80.95703125 67.76171875 C-88.19835224 61.45339373 -93.02348701 55.79730827 -94.2578125 45.94140625 C-94.7333854 37.04819295 -91.59947655 29.26313311 -85.73046875 22.69091797 C-82.88945555 19.91483764 -79.71444896 17.89793516 -76.3125 15.875 C-75.24986938 15.23062988 -75.24986938 15.23062988 -74.16577148 14.57324219 C-52.59692462 1.69120125 -25.01696453 -7.41559085 0 0 Z " fill="#F5F6F5" transform="translate(269,243)"/>
<path d="M0 0 C3.10306434 2.26021008 5.96727208 4.61010163 8.79296875 7.20703125 C10.91415455 9.31527045 10.91415455 9.31527045 14 9 C15.69178885 7.59732434 15.69178885 7.59732434 17.3125 5.75 C24.64967049 -1.84757111 32.00694121 -5.02952423 42.44995117 -5.40698242 C58.96032366 -5.62025064 71.97073581 0.52143067 84.05078125 11.77734375 C89.39305838 17.86903852 91.85705953 24.9328229 91.41015625 33 C90.12483345 42.40121816 87.46079789 50.77071424 83.0625 59.125 C82.57716797 60.04780762 82.57716797 60.04780762 82.08203125 60.98925781 C79.84200968 65.01374101 77.34822314 67.91381172 74 71 C69.02790438 69.23570801 64.56561939 66.6060834 60 64 C61 62 61 62 63.625 60.875 C69.23979065 57.75567186 72.99816539 53.43924948 75.4375 47.5 C76.92638212 38.2358446 75.6491957 30.66287105 70.4921875 22.66015625 C65.82204965 16.82791434 60.62701701 13.61779365 53.19140625 12.625 C47.24007496 12.36659756 43.59116813 12.93055552 39 17 C38.40316406 17.52078125 37.80632812 18.0415625 37.19140625 18.578125 C31.71986235 23.6287809 28.97220025 28.53552321 28.375 36.0625 C28.51714036 39.81500561 29.04485816 41.73733206 31.8125 44.3125 C38.7094781 49.21298444 46.40674375 53.35682993 55 52 C57.43119623 50.12984906 58.64069173 48.71861655 60 46 C60.54978069 40.9888842 60.56154513 37.10303507 58.25 32.5625 C55.50659641 29.43806814 53.68883346 27.44442986 49.625 26.375 C45.4254556 27.37489152 43.39137546 30.54968702 41 34 C40.30580127 35.31920822 39.63056403 36.64921829 39 38 C38.01 38 37.02 38 36 38 C35.38103667 33.75568003 35.12774134 30.37363569 37.48828125 26.65625 C43.13330017 20.2047998 43.13330017 20.2047998 47.171875 19.76171875 C53.00785694 19.59371321 56.54510111 19.84884422 61 24 C65.49948246 28.81050659 67.40961406 32.93169009 67.625 39.5625 C67.27000966 46.62928437 65.62739231 51.37260769 60.625 56.375 C57.72023469 58.17318805 55.32594091 59.19817415 52 60 C49.31640625 59.2421875 49.31640625 59.2421875 46.5625 57.875 C26.65208023 48.99076624 5.72881891 48.34436841 -15 55 C-17.66675129 56.05221105 -20.29372477 57.16964107 -22.92578125 58.3046875 C-27.24941027 59.7540396 -30.67836222 58.58397948 -34.6875 56.8125 C-38.40901397 53.8956377 -40.51486932 50.45539204 -42 46 C-42.93021745 38.26388775 -42.23035584 32.54931546 -37.76171875 26.0703125 C-34.49847491 22.23545832 -31.66878869 20.48210376 -26.578125 19.5625 C-21.88811339 19.22140825 -18.77831498 19.63977867 -15.0625 22.625 C-11.06610245 26.64967395 -9.09088186 30.12177494 -8.8125 35.875 C-8.9053125 37.421875 -8.9053125 37.421875 -9 39 C-12.70306039 37.55200844 -13.87228695 35.87813303 -15.75 32.4375 C-17.83224711 29.17343327 -17.83224711 29.17343327 -20.91796875 26.9765625 C-24.19930721 26.30379291 -26.14276457 26.47906462 -29.03125 28.234375 C-32.31487875 30.95278897 -34.80555433 33.02047932 -35.23828125 37.42578125 C-35.45756649 43.56786811 -35.45756649 43.56786811 -33.125 49.125 C-29.83395277 52.0288652 -27.26653686 52.5 -22.85546875 52.5 C-17.77928112 51.61114635 -13.41897614 48.97537097 -8.94140625 46.53125 C-6 45 -6 45 -4 45 C-1.62468767 40.39783236 -1.22478321 36.05888894 -2 31 C-4.82538622 22.83912049 -8.73148826 18.47573681 -16.125 14.1875 C-22.3953855 11.76832688 -30.15395917 11.80414069 -36.3125 14.5 C-44.02406976 19.0852577 -48.80059475 26.41060673 -51 35 C-52.01768414 41.92444879 -50.92040549 47.21501141 -47 53 C-43.58188786 57.66267918 -43.58188786 57.66267918 -39 61 C-37.62657169 61.0689472 -36.24997898 61.08467708 -34.875 61.0625 C-33.59625 61.041875 -32.3175 61.02125 -31 61 C-32.70366963 64.40733926 -36.46094739 65.52849723 -39.75 67.1875 C-40.82507813 67.75887695 -40.82507813 67.75887695 -41.921875 68.34179688 C-44.93340995 69.86694003 -47.34758627 70.94493217 -50.73046875 71.23046875 C-54.45435266 69.21149555 -55.74653541 65.83771753 -57.5625 62.125 C-58.14837891 60.97004028 -58.14837891 60.97004028 -58.74609375 59.79174805 C-64.58013891 48.09062097 -68.81152708 36.27941462 -67 23 C-61.74105227 10.09013154 -50.59124818 2.63506674 -38.3203125 -2.6875 C-26.05689725 -7.53515591 -11.552613 -6.10379312 0 0 Z " fill="#F4F4F3" transform="translate(236,186)"/>
<path d="M0 0 C5.6196721 3.97684461 9.14455437 8.95536963 11.19140625 15.55078125 C11.71180982 19.74292111 11.79040444 23.11810274 10.14453125 27.0546875 C7.46481594 30.47936367 4.4382891 31.99596503 0.56640625 33.86328125 C-0.15200439 34.21358398 -0.87041504 34.56388672 -1.6105957 34.92480469 C-6.95648712 37.40857137 -10.88500951 38.71607651 -16.80859375 37.55078125 C-20.14459742 35.492396 -21.63481135 33.81145485 -23.80859375 30.55078125 C-24.67352544 25.81279259 -24.79763641 21.39718929 -22.48828125 17.0859375 C-19.625077 13.53582102 -17.56087473 11.79721812 -13.18359375 10.36328125 C-9.18578432 10.58538177 -7.8296131 10.91707208 -4.80859375 13.55078125 C-3.15017892 15.84450923 -1.62032663 18.17703212 -0.140625 20.58984375 C1.04743251 22.68236977 1.04743251 22.68236977 3.19140625 23.55078125 C2.34673902 16.31285685 0.7263247 11.46903759 -4.80859375 6.55078125 C-8.97403675 4.46805975 -14.44071255 4.87942796 -18.84765625 6.12890625 C-23.27850153 8.27601189 -25.75172701 11.56532952 -27.9296875 15.9140625 C-29.94826095 21.96978286 -29.68920682 28.08506464 -27.55859375 34.05078125 C-24.94743858 37.78100292 -22.27408003 41.18632711 -17.80859375 42.55078125 C-12.75925548 42.30245314 -9.32589075 41.37488108 -4.6809082 39.32836914 C12.85097403 32.04723146 34.52989637 31.97468715 52.19140625 38.55078125 C55.33432079 39.90347417 58.44298194 41.27142167 61.5078125 42.79296875 C65.04852264 43.79281994 66.87015099 43.00497727 70.19140625 41.55078125 C74.62914884 38.76429171 77.02326831 35.63926089 78.19140625 30.55078125 C79.05125813 23.88692918 79.18461054 18.23142822 75.50390625 12.42578125 C72.38602096 8.48321168 70.01268343 6.01297 64.90234375 5.17578125 C59.9900786 4.81960493 56.95456936 5.19960349 53.12890625 8.42578125 C49.91859065 11.55300632 49.07253315 13.73951222 48.62890625 18.17578125 C48.50322266 19.40167969 48.50322266 19.40167969 48.375 20.65234375 C48.31441406 21.27882812 48.25382812 21.9053125 48.19140625 22.55078125 C49.18140625 22.55078125 50.17140625 22.55078125 51.19140625 22.55078125 C51.39765625 21.68453125 51.60390625 20.81828125 51.81640625 19.92578125 C53.49527841 15.80491321 55.40259428 12.96105523 59.19140625 10.55078125 C62.69140625 10.23828125 62.69140625 10.23828125 66.19140625 11.55078125 C69.52883218 14.57392043 72.96814345 18.12494508 73.39453125 22.7578125 C73.55301121 31.56665685 73.55301121 31.56665685 70.19140625 35.55078125 C66.33424594 38.12222146 63.63409994 38.43663558 59.19140625 37.55078125 C52.07582261 34.69169798 45.1599709 31.5866672 40.19140625 25.55078125 C38.75149481 20.06838551 39.95483917 14.43439931 42.71875 9.5703125 C46.42375468 4.48944401 51.16953158 -1.19245501 57.19140625 -3.44921875 C64.48059857 -4.43641645 71.05149119 -3.60996705 77.19140625 0.55078125 C84.16113711 6.5283796 88.12538124 13.66450474 89.53125 22.74609375 C89.88246557 29.91089135 87.34410938 35.45959516 82.87890625 40.86328125 C79.97703772 44.00594313 77.2239953 45.97708796 73.19140625 47.55078125 C76.82140625 49.86078125 80.45140625 52.17078125 84.19140625 54.55078125 C83.86140625 56.20078125 83.53140625 57.85078125 83.19140625 59.55078125 C78.60570431 57.87592527 74.46127027 55.57378999 70.19140625 53.23828125 C63.02814751 49.37959629 55.89793436 46.19757504 48.19140625 43.55078125 C47.22589844 43.19886719 46.26039063 42.84695312 45.265625 42.484375 C23.16457778 35.77262114 -1.19097657 42.56079994 -21.06396484 52.70166016 C-25.05834342 54.85670289 -28.95499318 57.1518511 -32.80859375 59.55078125 C-33.79859375 58.89078125 -34.78859375 58.23078125 -35.80859375 57.55078125 C-35.75 55.78515625 -35.75 55.78515625 -34.80859375 53.55078125 C-32.44667474 52.11436079 -30.24320538 50.93827296 -27.74609375 49.80078125 C-27.08287109 49.48496094 -26.41964844 49.16914063 -25.73632812 48.84375 C-24.09974733 48.06666847 -22.4549078 47.30702358 -20.80859375 46.55078125 C-21.72382813 46.60492188 -22.6390625 46.6590625 -23.58203125 46.71484375 C-28.46687158 46.46646204 -30.5770573 44.00247104 -33.80859375 40.55078125 C-38.98660659 33.69341289 -40.76714916 28.07818978 -39.80859375 19.55078125 C-37.63833428 10.1560339 -31.54394035 2.58855077 -23.49609375 -2.57421875 C-14.9994187 -4.59037893 -7.68080325 -4.37670169 0 0 Z " fill="#171718" transform="translate(223.80859375,201.44921875)"/>
<path d="M0 0 C0 0.66 0 1.32 0 2 C0.99 2.495 0.99 2.495 2 3 C-0.24535247 7.76014724 -3.14581713 9.53630943 -7.8125 11.5625 C-8.47612549 11.85987061 -9.13975098 12.15724121 -9.82348633 12.46362305 C-16.37189328 15.3120054 -23.05087195 17.35957713 -30 19 C-30.89074219 19.22558594 -31.78148437 19.45117188 -32.69921875 19.68359375 C-59.7838363 25.41683396 -87.07008086 18.79457926 -111 6 C-110.01 5.34 -109.02 4.68 -108 4 C-105.3125 4.875 -105.3125 4.875 -103 6 C-103 5.34 -103 4.68 -103 4 C-102.01 4 -101.02 4 -100 4 C-100 3.01 -100 2.02 -100 1 C-99.3915625 1.18175781 -98.783125 1.36351562 -98.15625 1.55078125 C-84.62414659 5.4313109 -71.75322503 7.4954941 -57.71826172 7.33618164 C-55.50060593 7.31250647 -53.28415771 7.31566663 -51.06640625 7.32226562 C-38.38462774 7.29915532 -25.38494248 6.79836211 -13.375 2.375 C-8.81424193 0.74156954 -4.90458465 -0.28672956 0 0 Z " fill="#EFEFEF" transform="translate(302,307)"/>
<path d="M0 0 C3.01606147 1.34998385 5.03493339 2.87390474 7.375 5.1875 C24.30134414 20.07154301 47.79662536 21.83221134 69.28735352 21.54199219 C72.59125409 21.49963133 75.89313499 21.50099132 79.19726562 21.5078125 C94.35050276 21.49664889 94.35050276 21.49664889 109 18 C110.12535156 17.62359375 111.25070312 17.2471875 112.41015625 16.859375 C121.06212105 13.2405856 128.96585735 8.81507125 136 2.5625 C139 0 139 0 142 0 C141.67500875 5.36235567 138.65754907 8.39244021 135 12 C126.57678036 19.04800011 116.32189894 22.83801287 105.875 25.8125 C105.15981201 26.01939453 104.44462402 26.22628906 103.70776367 26.43945312 C93.0477733 29.31144962 82.06097881 29.21202423 71.09545898 29.24023438 C68.83344303 29.24991041 66.57235004 29.28102801 64.31054688 29.3125 C41.0592122 29.48140279 19.48176323 23.48326104 1.64453125 7.9921875 C-0.29003747 5.6486482 -0.74200156 4.00492303 -1 1 C-0.67 0.67 -0.34 0.34 0 0 Z " fill="#19191A" transform="translate(178,286)"/>
<path d="M0 0 C4.82084089 1.76794543 7.55619906 6.83943955 9.94140625 11.1328125 C11.56965477 16.37939107 12.17468612 21.10703862 10.01953125 26.26171875 C7.33981594 29.68639492 4.3132891 31.20299628 0.44140625 33.0703125 C-0.63620972 33.5957666 -0.63620972 33.5957666 -1.7355957 34.13183594 C-7.08148712 36.61560262 -11.01000951 37.92310776 -16.93359375 36.7578125 C-20.26959742 34.69942725 -21.75981135 33.0184861 -23.93359375 29.7578125 C-24.79852544 25.01982384 -24.92263641 20.60422054 -22.61328125 16.29296875 C-19.750077 12.74285227 -17.68587473 11.00424937 -13.30859375 9.5703125 C-9.31078432 9.79241302 -7.9546131 10.12410333 -4.93359375 12.7578125 C-3.27517892 15.05154048 -1.74532663 17.38406337 -0.265625 19.796875 C0.92243251 21.88940102 0.92243251 21.88940102 3.06640625 22.7578125 C2.20401278 15.36799258 0.45912327 10.91606356 -4.93359375 5.7578125 C-5.59359375 5.0978125 -6.25359375 4.4378125 -6.93359375 3.7578125 C-2.98191127 -0.37349192 -2.98191127 -0.37349192 0 0 Z " fill="#121313" transform="translate(223.93359375,202.2421875)"/>
<path d="M0 0 C5.75914752 2.54731525 9.57089547 7.25999271 12 13 C13.10548723 19.8506709 12.82304629 26.37825619 9.19921875 32.41796875 C5.91905864 36.7452158 2.22216938 38.7675172 -3 40 C-6 39.171875 -6 39.171875 -9 37.75 C-12.95819938 35.91520966 -16.8359325 34.31366415 -21 33 C-21 31.68 -21 30.36 -21 29 C-18.56151426 28.12675848 -17.38692938 27.85526514 -14.921875 28.77734375 C-13.84679687 29.35162109 -13.84679687 29.35162109 -12.75 29.9375 C-8.13211706 32.12091418 -5.08482814 32.68946822 0 32 C2.43119623 30.12984906 3.64069173 28.71861655 5 26 C5.54978069 20.9888842 5.56154513 17.10303507 3.25 12.5625 C0.50659641 9.43806814 -1.31116654 7.44442986 -5.375 6.375 C-9.5745444 7.37489152 -11.60862454 10.54968702 -14 14 C-14.69419873 15.31920822 -15.36943597 16.64921829 -16 18 C-16.99 18 -17.98 18 -19 18 C-19.61896333 13.75568003 -19.87225866 10.37363569 -17.51171875 6.65625 C-12.00090748 0.35817998 -8.3585401 -0.87713075 0 0 Z " fill="#E8E8E8" transform="translate(291,206)"/>
<path d="M0 0 C4.93630825 2.69420936 8.15885423 6.69316808 10 12 C10.1875 15.875 10.1875 15.875 10 19 C6.29693961 17.55200844 5.12771305 15.87813303 3.25 12.4375 C1.16775289 9.17343327 1.16775289 9.17343327 -1.91796875 6.9765625 C-5.19930721 6.30379291 -7.14276457 6.47906462 -10.03125 8.234375 C-13.31487875 10.95278897 -15.80555433 13.02047932 -16.23828125 17.42578125 C-16.45756649 23.56786811 -16.45756649 23.56786811 -14.125 29.125 C-10.52851221 32.29837158 -7.95713487 32.26062826 -3.31640625 32.23828125 C-0.14050273 31.91158628 2.21162449 30.49145667 5 29 C7.375 29.3125 7.375 29.3125 9 30 C8.67 30.66 8.34 31.32 8 32 C8.66 32.33 9.32 32.66 10 33 C8.09659938 33.71377523 6.19253598 34.4258333 4.28515625 35.12890625 C2.82153681 35.68683298 1.36905583 36.27551626 -0.06640625 36.90234375 C-4.76285463 38.89672594 -7.90572793 39.34565677 -13 38 C-17.54153185 35.99327662 -19.52318162 33.24597436 -22 29 C-23.94024225 23.17927325 -24.10296983 16.8952958 -21.90625 11.12890625 C-17.02047135 2.38388223 -10.30055586 -2.18246127 0 0 Z " fill="#E9E9EA" transform="translate(217,206)"/>
<path d="M0 0 C3.51919016 0.99377422 5.36429521 0.14277712 8.68359375 -1.2421875 C10.01271057 -1.59195508 11.34442114 -1.93314767 12.68359375 -2.2421875 C11.36359375 -0.5921875 10.04359375 1.0578125 8.68359375 2.7578125 C11.55605089 4.67278393 14.45721102 6.53163995 17.37109375 8.3828125 C18.36496094 9.01445312 19.35882813 9.64609375 20.3828125 10.296875 C21.14207031 10.77898437 21.90132813 11.26109375 22.68359375 11.7578125 C22.18859375 14.2328125 22.18859375 14.2328125 21.68359375 16.7578125 C17.09789181 15.08295652 12.95345777 12.78082124 8.68359375 10.4453125 C1.52033501 6.58662754 -5.60987814 3.40460629 -13.31640625 0.7578125 C-14.28191406 0.40589844 -15.24742187 0.05398437 -16.2421875 -0.30859375 C-31.01855669 -4.79595364 -47.5281927 -2.42326289 -62.31640625 0.7578125 C-62.64640625 -0.2321875 -62.97640625 -1.2221875 -63.31640625 -2.2421875 C-64.30640625 -2.5721875 -65.29640625 -2.9021875 -66.31640625 -3.2421875 C-64.08796411 -3.8905164 -61.85862165 -4.53575119 -59.62890625 -5.1796875 C-57.76685547 -5.71916016 -57.76685547 -5.71916016 -55.8671875 -6.26953125 C-36.94604752 -11.45254979 -17.388631 -8.63265369 0 0 Z " fill="#1A1B1B" transform="translate(285.31640625,244.2421875)"/>
<path d="M0 0 C5.16660455 1.8128437 8.1332477 5.39149539 10.5625 10.25 C10.98776125 14.87062705 11.12560381 18.96290557 9.25 23.25 C6.57903129 26.41559255 4.95647202 27.2106028 0.8125 27.625 C-3.99349967 27.46509613 -6.69420123 26.3057541 -10.4375 23.25 C-11.2323218 20.52111181 -11.29632222 18.12061491 -11.4375 15.25 C-12.0975 14.92 -12.7575 14.59 -13.4375 14.25 C-6.37928153 0.46394775 -6.37928153 0.46394775 0 0 Z " fill="#111111" transform="translate(286.4375,211.75)"/>
<path d="M0 0 C0.33 0 0.66 0 1 0 C1.58940836 8.90661523 0.83140581 14.55789573 -5.05859375 21.38671875 C-9.02161079 25.5368597 -12.61437888 28.92860726 -18 31 C-18.33 29.02 -18.66 27.04 -19 25 C-20.32 24.67 -21.64 24.34 -23 24 C-22.29875 23.64808594 -21.5975 23.29617188 -20.875 22.93359375 C-11.93237003 18.28002408 -4.24699158 13.94391173 -1 4 C-1.99 3.67 -2.98 3.34 -4 3 C-3.01 2.67 -2.02 2.34 -1 2 C-0.67 1.34 -0.34 0.68 0 0 Z " fill="#E9E9E9" transform="translate(321,282)"/>
<path d="M0 0 C2.78014565 1.36958754 3.88238811 2.56474633 6 5 C6.375 8.3125 6.375 8.3125 6 11 C4.35 11.33 2.7 11.66 1 12 C0.34 11.01 -0.32 10.02 -1 9 C-5.455 9.495 -5.455 9.495 -10 10 C-12 7 -12 7 -11.8125 5 C-9.57570985 -0.50594499 -5.59992727 -1.11787625 0 0 Z " fill="#151617" transform="translate(240,249)"/>
<path d="M0 0 C2.5 1.1875 2.5 1.1875 4 3 C4.375 5.5625 4.375 5.5625 4 8 C3.34 8.66 2.68 9.32 2 10 C-0.33333333 9.66666667 -2.66666667 9.33333333 -5 9 C-5.66 9.66 -6.32 10.32 -7 11 C-9.625 10.625 -9.625 10.625 -12 10 C-12.8125 7.8125 -12.8125 7.8125 -13 5 C-9.23431405 -0.46631832 -6.18510235 -0.78540982 0 0 Z " fill="#1A1A1B" transform="translate(265,249)"/>
<path d="M0 0 C2.22307242 1.03214077 3.94266292 1.94675842 5.75 3.625 C9.17073237 5.71544756 12.03623789 5.19818811 16 5 C14.29633037 8.40733926 10.53905261 9.52849723 7.25 11.1875 C6.53328125 11.56841797 5.8165625 11.94933594 5.078125 12.34179688 C-0.29206032 15.06144036 -0.29206032 15.06144036 -4.015625 14.73828125 C-4.67046875 14.49464844 -5.3253125 14.25101562 -6 14 C-4.81572362 11.20080129 -3.34046715 9.21949739 -1.3125 7 C1.29209656 4.31486728 1.29209656 4.31486728 0.8125 1.625 C0.544375 1.08875 0.27625 0.5525 0 0 Z " fill="#EBECEE" transform="translate(189,242)"/>
<path d="M0 0 C0.66 0.33 1.32 0.66 2 1 C0.68 2.32 -0.64 3.64 -2 5 C0.87245714 6.91497143 3.77361727 8.77382745 6.6875 10.625 C7.68136719 11.25664062 8.67523438 11.88828125 9.69921875 12.5390625 C10.83810547 13.26222656 10.83810547 13.26222656 12 14 C11.67 15.65 11.34 17.3 11 19 C7.20950293 17.57250019 3.72877544 15.83763458 0.1875 13.875 C-1.27623047 13.06675781 -1.27623047 13.06675781 -2.76953125 12.2421875 C-3.50558594 11.83226562 -4.24164063 11.42234375 -5 11 C-3.68 9.68 -2.36 8.36 -1 7 C-3.475 6.01 -3.475 6.01 -6 5 C-6 4.34 -6 3.68 -6 3 C-4.03533587 1.93224776 -2.03144641 0.93446535 0 0 Z " fill="#1C1D1C" transform="translate(296,242)"/>
<path d="M0 0 C3.14051252 1.40276226 5.36749893 3.09615863 7.875 5.4375 C11.10595643 8.3417305 14.01379281 10.30586194 18 12 C17.01 12.33 16.02 12.66 15 13 C14.67 13.66 14.34 14.32 14 15 C13.01 15.495 13.01 15.495 12 16 C1.51084487 8.22278455 1.51084487 8.22278455 -1 4 C-0.75 1.6875 -0.75 1.6875 0 0 Z " fill="#0F1113" transform="translate(178,286)"/>
<path d="M0 0 C2.475 0.99 2.475 0.99 5 2 C5.54555287 8.54663442 4.8277608 13.52378747 1 19 C0.34 19.33 -0.32 19.66 -1 20 C-2.07787679 15.78501913 -1.95969909 12.07395038 -1.625 7.75 C-1.48964844 5.88601562 -1.48964844 5.88601562 -1.3515625 3.984375 C-1 1 -1 1 0 0 Z " fill="#EFF0EF" transform="translate(298,221)"/>
<path d="M0 0 C0.99 1.485 0.99 1.485 2 3 C2.99 3.33 3.98 3.66 5 4 C4.01 4.495 4.01 4.495 3 5 C3.28961914 9.77871573 5.58278928 12.1172658 8.72265625 15.44921875 C10 17 10 17 10 19 C8.35 19.66 6.7 20.32 5 21 C4.3490741 19.75264433 3.70448331 18.50198168 3.0625 17.25 C2.70285156 16.55390625 2.34320313 15.8578125 1.97265625 15.140625 C0.29114548 11.43995069 -0.12205095 8.29946487 -0.0625 4.25 C-0.05347656 3.45078125 -0.04445312 2.6515625 -0.03515625 1.828125 C-0.02355469 1.22484375 -0.01195312 0.6215625 0 0 Z " fill="#F2F1F2" transform="translate(175,282)"/>
<path d="M0 0 C1.19109375 0.42152344 1.19109375 0.42152344 2.40625 0.8515625 C3.2003125 1.12742188 3.994375 1.40328125 4.8125 1.6875 C6.90625 2.4765625 6.90625 2.4765625 8.90625 3.4765625 C10.44648996 3.54606791 11.98959988 3.56108607 13.53125 3.5390625 C14.34851563 3.53003906 15.16578125 3.52101562 16.0078125 3.51171875 C16.63429688 3.50011719 17.26078125 3.48851562 17.90625 3.4765625 C17.90625 4.1365625 17.90625 4.7965625 17.90625 5.4765625 C16.6275 5.6003125 15.34875 5.7240625 14.03125 5.8515625 C10.55834064 6.16698649 10.55834064 6.16698649 7.90625 8.4765625 C3.94625 7.1565625 -0.01375 5.8365625 -4.09375 4.4765625 C-4.09375 3.1565625 -4.09375 1.8365625 -4.09375 0.4765625 C-2.09375 -0.5234375 -2.09375 -0.5234375 0 0 Z " fill="#E0E0DF" transform="translate(274.09375,234.5234375)"/>
<path d="M0 0 C0.5775 0.20625 1.155 0.4125 1.75 0.625 C1.42 1.285 1.09 1.945 0.75 2.625 C1.41 2.955 2.07 3.285 2.75 3.625 C-2.87338249 5.77210968 -8.52789404 7.75736819 -14.25 9.625 C-13.92 8.305 -13.59 6.985 -13.25 5.625 C-14.24 4.965 -15.23 4.305 -16.25 3.625 C-15.57453125 3.50382813 -14.8990625 3.38265625 -14.203125 3.2578125 C-12.86507812 3.00644531 -12.86507812 3.00644531 -11.5 2.75 C-10.61828125 2.58757812 -9.7365625 2.42515625 -8.828125 2.2578125 C-6.24986633 1.72569903 -6.24986633 1.72569903 -4.0625 0.53125 C-2.25 -0.375 -2.25 -0.375 0 0 Z " fill="#E4E4E5" transform="translate(224.25,235.375)"/>
<path d="M0 0 C3.465 1.98 3.465 1.98 7 4 C5.68 5.32 4.36 6.64 3 8 C3.99 8.99 4.98 9.98 6 11 C5.67 11.99 5.34 12.98 5 14 C3.65787938 12.90653119 2.32652025 11.7998425 1 10.6875 C0.2575 10.07261719 -0.485 9.45773437 -1.25 8.82421875 C-3 7 -3 7 -3 4 C-1.5 1.8125 -1.5 1.8125 0 0 Z " fill="#E9E9EA" transform="translate(185,298)"/>
<path d="M0 0 C-0.99 0.33 -1.98 0.66 -3 1 C0.47325181 2.1577506 3.36067448 2.06866652 7 2 C7 2.33 7 2.66 7 3 C1.39 3.99 -4.22 4.98 -10 6 C-10.33 5.01 -10.66 4.02 -11 3 C-11.99 2.67 -12.98 2.34 -14 2 C-12.42085985 1.46658816 -10.83645613 0.94874237 -9.25 0.4375 C-8.36828125 0.14746094 -7.4865625 -0.14257812 -6.578125 -0.44140625 C-3.92165684 -1.01697435 -2.52968894 -0.89248371 0 0 Z " fill="#242422" transform="translate(233,239)"/>
<path d="M0 0 C2.83967231 0 5.23735711 0.40267181 8 1 C7.07615834 2.67427615 6.13549431 4.33928003 5.1875 6 C4.40439453 7.3921875 4.40439453 7.3921875 3.60546875 8.8125 C3.07566406 9.534375 2.54585938 10.25625 2 11 C1.01 11 0.02 11 -1 11 C-1.0270043 9.54176788 -1.04639787 8.08339325 -1.0625 6.625 C-1.07410156 5.81289062 -1.08570313 5.00078125 -1.09765625 4.1640625 C-1 2 -1 2 0 0 Z " fill="#E9E9EB" transform="translate(273,213)"/>
<path d="M0 0 C4.19469571 0.59924224 8.00999834 1.57499941 12 3 C10.515 5.475 10.515 5.475 9 8 C3.56603774 7.39622642 3.56603774 7.39622642 1.125 5.6875 C0 4 0 4 0 0 Z " fill="#F2F2F3" transform="translate(201,237)"/>
<path d="M0 0 C1.2684375 0.4640625 1.2684375 0.4640625 2.5625 0.9375 C1.964375 1.06125 1.36625 1.185 0.75 1.3125 C-1.69981348 1.89225985 -1.69981348 1.89225985 -4.4375 3.9375 C-6.11043936 3.63722883 -7.77735384 3.30192233 -9.4375 2.9375 C-11.66917185 3.30606864 -11.66917185 3.30606864 -13.4375 3.9375 C-13.0625 1.5 -13.0625 1.5 -12.4375 -1.0625 C-8.51832574 -3.02208713 -4.00036639 -1.23647688 0 0 Z " fill="#E1E1DE" transform="translate(154.4375,346.0625)"/>
<path d="M0 0 C2.8125 0.375 2.8125 0.375 4.8125 2.375 C4.8125 3.035 4.8125 3.695 4.8125 4.375 C5.4725 4.705 6.1325 5.035 6.8125 5.375 C6.8125 6.035 6.8125 6.695 6.8125 7.375 C1.8625 6.385 -3.0875 5.395 -8.1875 4.375 C-3.1875 0.375 -3.1875 0.375 0 0 Z " fill="#232321" transform="translate(267.1875,237.625)"/>
<path d="M0 0 C0.66 0.99 1.32 1.98 2 3 C1.125 5.5 1.125 5.5 0 8 C0 8.99 0 9.98 0 11 C-2.31 12.32 -4.62 13.64 -7 15 C-6.42176904 10.93774452 -5.10882263 8.15237654 -2.9375 4.6875 C-2.38964844 3.80449219 -1.84179688 2.92148438 -1.27734375 2.01171875 C-0.64505859 1.01591797 -0.64505859 1.01591797 0 0 Z " fill="#171719" transform="translate(166,174)"/>
<path d="M0 0 C2.97 1.65 5.94 3.3 9 5 C8.67 6.65 8.34 8.3 8 10 C4.67689517 8.83242263 2.16638868 7.85051143 0 5 C0 3.33333333 0 1.66666667 0 0 Z " fill="#212125" transform="translate(299,251)"/>
<path d="M0 0 C3.16115776 1.36983503 3.9927092 1.9890638 6 5 C5.625 7.6875 5.625 7.6875 5 10 C0.22632794 6.69515012 0.22632794 6.69515012 -0.875 3.3125 C-0.91625 2.549375 -0.9575 1.78625 -1 1 C-0.67 0.67 -0.34 0.34 0 0 Z " fill="#26292A" transform="translate(178,286)"/>
<path d="M0 0 C2.97 0.495 2.97 0.495 6 1 C4.35 2.98 2.7 4.96 1 7 C-1.91517292 5.92598892 -3.77810176 5.22189824 -6 3 C-4.35 3 -2.7 3 -1 3 C-0.67 2.01 -0.34 1.02 0 0 Z " fill="#EAE9EE" transform="translate(309,250)"/>
<path d="M0 0 C0.66 0 1.32 0 2 0 C2 0.66 2 1.32 2 2 C3.65 2.33 5.3 2.66 7 3 C3.58983503 5.86453858 0.09305456 7.34703566 -4 9 C-4 8.34 -4 7.68 -4 7 C-3.34 7 -2.68 7 -2 7 C-1.855625 6.030625 -1.71125 5.06125 -1.5625 4.0625 C-1 1 -1 1 0 0 Z " fill="#202020" transform="translate(299,299)"/>
<path d="M0 0 C-3.41016497 2.86453858 -6.90694544 4.34703566 -11 6 C-11.33 4.35 -11.66 2.7 -12 1 C-8.00439392 -1.83022097 -4.57262677 -0.76210446 0 0 Z " fill="#212321" transform="translate(209,250)"/>
<path d="M0 0 C0.99 0.33 1.98 0.66 3 1 C3.75 3 3.75 3 4 5 C3 6 3 6 1.15234375 6.09765625 C-0.8984375 6.06510417 -2.94921875 6.03255208 -5 6 C-5 5.01 -5 4.02 -5 3 C-4.01 3 -3.02 3 -2 3 C-1.34 2.01 -0.68 1.02 0 0 Z " fill="#F7F7F7" transform="translate(289,206)"/>
<path d="M0 0 C1.98 0.66 3.96 1.32 6 2 C5.67 3.65 5.34 5.3 5 7 C3.02 6.34 1.04 5.68 -1 5 C-0.67 3.35 -0.34 1.7 0 0 Z " fill="#1F1F1E" transform="translate(282,243)"/>
<path d="M0 0 C-0.33 0.99 -0.66 1.98 -1 3 C-1.66 3 -2.32 3 -3 3 C-3 3.66 -3 4.32 -3 5 C-5.31 4.34 -7.62 3.68 -10 3 C-7.29536552 -0.8183075 -4.37912428 -0.24787496 0 0 Z " fill="#101011" transform="translate(288,306)"/>
<path d="M0 0 C0.33 0 0.66 0 1 0 C1 3.63 1 7.26 1 11 C-0.65 11.33 -2.3 11.66 -4 12 C-3.01 9.36 -2.02 6.72 -1 4 C-1.99 3.67 -2.98 3.34 -4 3 C-3.01 2.67 -2.02 2.34 -1 2 C-0.67 1.34 -0.34 0.68 0 0 Z " fill="#D1D1D1" transform="translate(321,282)"/>
<path d="M0 0 C0.99 0 1.98 0 3 0 C3.33 0.66 3.66 1.32 4 2 C7.465 1.505 7.465 1.505 11 1 C9 4 9 4 6.8359375 4.51171875 C6.02382812 4.56972656 5.21171875 4.62773437 4.375 4.6875 C3.14910156 4.78611328 3.14910156 4.78611328 1.8984375 4.88671875 C1.27195313 4.92410156 0.64546875 4.96148437 0 5 C-0.5625 3.0625 -0.5625 3.0625 -1 1 C-0.67 0.67 -0.34 0.34 0 0 Z " fill="#EDEEEC" transform="translate(226,256)"/>
<path d="M0 0 C1.37478516 0.01740234 1.37478516 0.01740234 2.77734375 0.03515625 C3.69644531 0.04417969 4.61554688 0.05320313 5.5625 0.0625 C6.27277344 0.07410156 6.98304688 0.08570313 7.71484375 0.09765625 C6.71484375 2.09765625 6.71484375 2.09765625 4.52734375 3.16015625 C1.59512981 4.1375609 -1.22798811 4.67107465 -4.28515625 5.09765625 C-3.16461059 0.13523977 -3.16461059 0.13523977 0 0 Z " fill="#D1D2D2" transform="translate(197.28515625,246.90234375)"/>
<path d="M0 0 C4.57071175 0.34495938 7.58325171 0.85659158 11 4 C9.56344146 4.08131463 8.1255517 4.13933559 6.6875 4.1875 C5.48673828 4.23970703 5.48673828 4.23970703 4.26171875 4.29296875 C1.52148416 3.93801608 0.70828921 3.10633718 -1 1 C-0.67 0.67 -0.34 0.34 0 0 Z " fill="#D3D4CF" transform="translate(356,209)"/>
<path d="M0 0 C1.98 0.66 3.96 1.32 6 2 C5.45276317 5.37462715 4.9451 7.08235 3 10 C2.01 6.7 1.02 3.4 0 0 Z " fill="#D0D0D1" transform="translate(347,359)"/>
<path d="M0 0 C0.66 0.33 1.32 0.66 2 1 C1.67 3.64 1.34 6.28 1 9 C0.34 8.67 -0.32 8.34 -1 8 C-1 6.68 -1 5.36 -1 4 C-1.66 4 -2.32 4 -3 4 C-3 3.01 -3 2.02 -3 1 C-2.01 0.67 -1.02 0.34 0 0 Z " fill="#F4F4F5" transform="translate(198,219)"/>
<path d="M0 0 C1.32 0 2.64 0 4 0 C4.66 1.32 5.32 2.64 6 4 C4.68 4.99 3.36 5.98 2 7 C0 5 0 5 -0.125 2.375 C-0.08375 1.59125 -0.0425 0.8075 0 0 Z " fill="#161617" transform="translate(246,190)"/>
<path d="M0 0 C0.99 1.485 0.99 1.485 2 3 C2.99 3.33 3.98 3.66 5 4 C4.01 4.495 4.01 4.495 3 5 C3.33 6.98 3.66 8.96 4 11 C3.34 11 2.68 11 2 11 C1.67 11.66 1.34 12.32 1 13 C0.1276588 10.00519083 -0.10829766 7.36424089 -0.0625 4.25 C-0.05347656 3.45078125 -0.04445312 2.6515625 -0.03515625 1.828125 C-0.02355469 1.22484375 -0.01195312 0.6215625 0 0 Z " fill="#BFC1C0" transform="translate(175,282)"/>
<path d="M0 0 C-0.75 4.75 -0.75 4.75 -3 7 C-3.33 6.01 -3.66 5.02 -4 4 C-4.66 3.67 -5.32 3.34 -6 3 C-3.375 0 -3.375 0 0 0 Z M-8 4 C-6 5 -6 5 -6 5 Z " fill="#242325" transform="translate(320,286)"/>
<path d="M0 0 C0.66 0.33 1.32 0.66 2 1 C0.625 3 0.625 3 -1 5 C-1.66 5 -2.32 5 -3 5 C-2.67 5.99 -2.34 6.98 -2 8 C-3.98 7.34 -5.96 6.68 -8 6 C-5.38485683 3.87961365 -2.80362384 1.86908256 0 0 Z " fill="#E3E3E1" transform="translate(199,255)"/>
<path d="M0 0 C0.66 0.33 1.32 0.66 2 1 C0.68 2.32 -0.64 3.64 -2 5 C-1.01 5.66 -0.02 6.32 1 7 C0.01 7.495 0.01 7.495 -1 8 C-3.625 6.6875 -3.625 6.6875 -6 5 C-6 4.34 -6 3.68 -6 3 C-4.03533587 1.93224776 -2.03144641 0.93446535 0 0 Z " fill="#47474C" transform="translate(296,242)"/>
<path d="M0 0 C2.64 0 5.28 0 8 0 C7.67 1.32 7.34 2.64 7 4 C5.02 4 3.04 4 1 4 C0.67 2.68 0.34 1.36 0 0 Z " fill="#F5F4F6" transform="translate(283,240)"/>
<path d="M0 0 C0.8353125 0.37125 0.8353125 0.37125 1.6875 0.75 C1.6875 1.41 1.6875 2.07 1.6875 2.75 C-5.0625 4.875 -5.0625 4.875 -7.3125 3.75 C-2.88173077 -0.31153846 -2.88173077 -0.31153846 0 0 Z " fill="#DCDCDB" transform="translate(206.3125,207.25)"/>
<path d="M0 0 C0.66 0.33 1.32 0.66 2 1 C0 3 -2 5 -4 7 C-4.99 6.01 -5.98 5.02 -7 4 C-4.61426621 2.10786631 -2.92824652 0.97608217 0 0 Z " fill="#DEDEDC" transform="translate(266,183)"/>
<path d="M0 0 C0.66 0.99 1.32 1.98 2 3 C0.12050295 6.57104439 -1.17053157 8.54744301 -5 10 C-3.84414715 6.08788267 -2.64465038 3.1254959 0 0 Z " fill="#1E1E20" transform="translate(166,174)"/>
<path d="M0 0 C0.99 0.33 1.98 0.66 3 1 C3.6875 3.0625 3.6875 3.0625 4 5 C5.32 5.33 6.64 5.66 8 6 C7.67 6.99 7.34 7.98 7 9 C3.26115668 6.34345343 1.35021826 4.41889613 0 0 Z " fill="#DBDBDF" transform="translate(127,355)"/>
<path d="M0 0 C-0.99 1.485 -0.99 1.485 -2 3 C-1.01 3.33 -0.02 3.66 1 4 C-0.98 4.33 -2.96 4.66 -5 5 C-5.33 3.35 -5.66 1.7 -6 0 C-3 -1 -3 -1 0 0 Z " fill="#212122" transform="translate(214,245)"/>
<path d="M0 0 C0.33 0.66 0.66 1.32 1 2 C0.67 2.66 0.34 3.32 0 4 C0.66 4.33 1.32 4.66 2 5 C0.68 5.33 -0.64 5.66 -2 6 C-2 5.34 -2 4.68 -2 4 C-3.65 4.33 -5.3 4.66 -7 5 C-4.702779 3.25728062 -2.40133271 1.60088848 0 0 Z " fill="#212024" transform="translate(302,313)"/>
<path d="M0 0 C2.35981813 0.93578995 4.69631264 1.93347808 7 3 C7 3.99 7 4.98 7 6 C3.54074837 4.7508258 0.85306797 3.32472205 -2 1 C-1.34 0.67 -0.68 0.34 0 0 Z " fill="#DEDDE0" transform="translate(193,311)"/>
<path d="M0 0 C0.99 0.33 1.98 0.66 3 1 C2.34 2.65 1.68 4.3 1 6 C0.01 6 -0.98 6 -2 6 C-2 4.35 -2 2.7 -2 1 C-1.34 0.67 -0.68 0.34 0 0 Z " fill="#F4F4F4" transform="translate(315,297)"/>
<path d="M0 0 C2.475 0.99 2.475 0.99 5 2 C4.01 2.33 3.02 2.66 2 3 C1.67 3.66 1.34 4.32 1 5 C0.01 5.495 0.01 5.495 -1 6 C-1.99 5.01 -2.98 4.02 -4 3 C-3.01 2.67 -2.02 2.34 -1 2 C-0.67 1.34 -0.34 0.68 0 0 Z " fill="#212222" transform="translate(191,296)"/>
<path d="M0 0 C2.475 0.99 2.475 0.99 5 2 C4.67 2.99 4.34 3.98 4 5 C3.34 5 2.68 5 2 5 C1.67 5.66 1.34 6.32 1 7 C0 6 0 6 -0.0625 2.9375 C-0.041875 1.968125 -0.02125 0.99875 0 0 Z " fill="#1B1C1E" transform="translate(183,291)"/>
<path d="M0 0 C1.65 0 3.3 0 5 0 C4.67 0.99 4.34 1.98 4 3 C2.02 3.33 0.04 3.66 -2 4 C-1.34 2.68 -0.68 1.36 0 0 Z " fill="#0F0F0D" transform="translate(259,237)"/>
<path d="M0 0 C0.33 0.99 0.66 1.98 1 3 C0.01 3 -0.98 3 -2 3 C-2 3.66 -2 4.32 -2 5 C-3.65 4.67 -5.3 4.34 -7 4 C-7 3.34 -7 2.68 -7 2 C-4.69 1.34 -2.38 0.68 0 0 Z " fill="#F7F8F7" transform="translate(201,308)"/>
<path d="M0 0 C0.33 0 0.66 0 1 0 C1.08131463 1.43655854 1.13933559 2.8744483 1.1875 4.3125 C1.22230469 5.11300781 1.25710937 5.91351563 1.29296875 6.73828125 C0.93801608 9.47851584 0.10633718 10.29171079 -2 12 C-2.33 10.68 -2.66 9.36 -3 8 C-2.34 8 -1.68 8 -1 8 C-0.67 5.36 -0.34 2.72 0 0 Z " fill="#212121" transform="translate(234,217)"/>
<path d="M0 0 C1.32 0.33 2.64 0.66 4 1 C4 1.99 4 2.98 4 4 C2.68 4.33 1.36 4.66 0 5 C0 3.35 0 1.7 0 0 Z " fill="#EDEDEA" transform="translate(177,293)"/>
<path d="M0 0 C0.33 0.66 0.66 1.32 1 2 C2.97888961 2.72693904 4.97954558 3.39816251 7 4 C6.34 4.66 5.68 5.32 5 6 C2.875 5.625 2.875 5.625 1 5 C0.67 3.35 0.34 1.7 0 0 Z " fill="#30312E" transform="translate(228,253)"/>
<path d="M0 0 C0.33 0.66 0.66 1.32 1 2 C0.01 3.32 -0.98 4.64 -2 6 C-3.32 5.01 -4.64 4.02 -6 3 C-4.02 2.01 -2.04 1.02 0 0 Z " fill="#D7D6D8" transform="translate(302,246)"/>
<path d="M0 0 C0.66 0.66 1.32 1.32 2 2 C1.67 2.66 1.34 3.32 1 4 C-1.4375 4.75 -1.4375 4.75 -4 5 C-4.66 4.34 -5.32 3.68 -6 3 C-4.02 2.01 -2.04 1.02 0 0 Z " fill="#0F1010" transform="translate(208,246)"/>
<path d="M0 0 C2.4375 0.75 2.4375 0.75 5 2 C5.8125 4.125 5.8125 4.125 6 6 C5.01 6 4.02 6 3 6 C0 2.66666667 0 2.66666667 0 0 Z " fill="#E4E4E4" transform="translate(196,235)"/>
<path d="M0 0 C-1.38081223 4.1424367 -3.59825558 5.32203099 -7 8 C-7.66 7.67 -8.32 7.34 -9 7 C-7.88121617 5.82737096 -6.75476949 4.66204862 -5.625 3.5 C-4.68527344 2.52546875 -4.68527344 2.52546875 -3.7265625 1.53125 C-2 0 -2 0 0 0 Z " fill="#E4E4E2" transform="translate(259,188)"/>
<path d="M0 0 C0.66 1.32 1.32 2.64 2 4 C1.01 4.495 1.01 4.495 0 5 C-0.66 4.67 -1.32 4.34 -2 4 C-2.33 4.99 -2.66 5.98 -3 7 C-3.33 6.34 -3.66 5.68 -4 5 C-2.52830189 1.26415094 -2.52830189 1.26415094 0 0 Z " fill="#E2E2E1" transform="translate(155,173)"/>
<path d="M0 0 C2.00720923 0.28674418 4.0085944 0.61866701 6 1 C6.33 2.32 6.66 3.64 7 5 C1.25 3.25 1.25 3.25 -1 1 C-0.67 0.67 -0.34 0.34 0 0 Z " fill="#DBDBDB" transform="translate(299,147)"/>
<path d="M0 0 C1.32 0 2.64 0 4 0 C4 0.66 4 1.32 4 2 C4.66 2.33 5.32 2.66 6 3 C2.25 4.125 2.25 4.125 0 3 C0 2.01 0 1.02 0 0 Z " fill="#F7F7F7" transform="translate(298,307)"/>
<path d="M0 0 C1.65 0 3.3 0 5 0 C5 1.65 5 3.3 5 5 C4.34 5 3.68 5 3 5 C3 4.34 3 3.68 3 3 C2.01 2.67 1.02 2.34 0 2 C0 1.34 0 0.68 0 0 Z " fill="#0F0F0E" transform="translate(271,240)"/>
<path d="M0 0 C-0.33 1.32 -0.66 2.64 -1 4 C-2.65 3.67 -4.3 3.34 -6 3 C-3.375 0 -3.375 0 0 0 Z M-8 3 C-7.01 3.495 -7.01 3.495 -6 4 C-6.99 4.495 -6.99 4.495 -8 5 C-8 4.34 -8 3.68 -8 3 Z " fill="#F7F7F8" transform="translate(282,210)"/>
<path d="M0 0 C-0.5625 1.9375 -0.5625 1.9375 -2 4 C-5.625 4.75 -5.625 4.75 -9 5 C-6.45523312 2.20075644 -3.92372883 0 0 0 Z " fill="#DEDEDC" transform="translate(194,186)"/>
<path d="M0 0 C0 0.33 0 0.66 0 1 C-4.79137588 2.6290678 -8.05632546 3.20577428 -13 2 C-13 1.67 -13 1.34 -13 1 C-8.59085217 -0.10228696 -4.51617599 -0.07654536 0 0 Z " fill="#C0C0BD" transform="translate(225,131)"/>
<path d="" fill="#000000" transform="translate(0,0)"/>
<path d="" fill="#000000" transform="translate(0,0)"/>
<path d="" fill="#000000" transform="translate(0,0)"/>
<path d="" fill="#000000" transform="translate(0,0)"/>
<path d="" fill="#000000" transform="translate(0,0)"/>
<path d="" fill="#000000" transform="translate(0,0)"/>
<path d="" fill="#000000" transform="translate(0,0)"/>
<path d="" fill="#000000" transform="translate(0,0)"/>
<path d="" fill="#000000" transform="translate(0,0)"/>
<path d="" fill="#000000" transform="translate(0,0)"/>
<path d="" fill="#000000" transform="translate(0,0)"/>
<path d="" fill="#000000" transform="translate(0,0)"/>
<path d="" fill="#000000" transform="translate(0,0)"/>
<path d="" fill="#000000" transform="translate(0,0)"/>
<path d="" fill="#000000" transform="translate(0,0)"/>
<path d="" fill="#000000" transform="translate(0,0)"/>
<path d="" fill="#000000" transform="translate(0,0)"/>
<path d="" fill="#000000" transform="translate(0,0)"/>
<path d="" fill="#000000" transform="translate(0,0)"/>
<path d="" fill="#000000" transform="translate(0,0)"/>
<path d="" fill="#000000" transform="translate(0,0)"/>
<path d="" fill="#000000" transform="translate(0,0)"/>
<path d="" fill="#000000" transform="translate(0,0)"/>
<path d="" fill="#000000" transform="translate(0,0)"/>
<path d="" fill="#000000" transform="translate(0,0)"/>
<path d="" fill="#0000FF" transform="translate(0,0)"/>
<path d="" fill="#000000" transform="translate(0,0)"/>
<path d="" fill="#000000" transform="translate(0,0)"/>
<path d="" fill="#000000" transform="translate(0,0)"/>
<path d="" fill="#000000" transform="translate(0,0)"/>
<path d="" fill="#000000" transform="translate(0,0)"/>
<path d="" fill="#000000" transform="translate(0,0)"/>
<path d="" fill="#000000" transform="translate(0,0)"/>
<path d="" fill="#000000" transform="translate(0,0)"/>
<path d="" fill="#000000" transform="translate(0,0)"/>
<path d="" fill="#000000" transform="translate(0,0)"/>
<path d="" fill="#000000" transform="translate(0,0)"/>
<path d="" fill="#000000" transform="translate(0,0)"/>
<path d="" fill="#000000" transform="translate(0,0)"/>
<path d="" fill="#000000" transform="translate(0,0)"/>
<path d="" fill="#000000" transform="translate(0,0)"/>
<path d="" fill="#000000" transform="translate(0,0)"/>
<path d="" fill="#000000" transform="translate(0,0)"/>
<path d="" fill="#000000" transform="translate(0,0)"/>
<path d="" fill="#000000" transform="translate(0,0)"/>
<path d="" fill="#000000" transform="translate(0,0)"/>
<path d="" fill="#000000" transform="translate(0,0)"/>
<path d="" fill="#000000" transform="translate(0,0)"/>
<path d="" fill="#000000" transform="translate(0,0)"/>
<path d="" fill="#000000" transform="translate(0,0)"/>
<path d="" fill="#000000" transform="translate(0,0)"/>
<path d="" fill="#000000" transform="translate(0,0)"/>
<path d="" fill="#000000" transform="translate(0,0)"/>
<path d="" fill="#000000" transform="translate(0,0)"/>
<path d="" fill="#000000" transform="translate(0,0)"/>
<path d="" fill="#000000" transform="translate(0,0)"/>
<path d="" fill="#000000" transform="translate(0,0)"/>
<path d="" fill="#000000" transform="translate(0,0)"/>
<path d="" fill="#000000" transform="translate(0,0)"/>
<path d="" fill="#000000" transform="translate(0,0)"/>
<path d="" fill="#000000" transform="translate(0,0)"/>
<path d="" fill="#000000" transform="translate(0,0)"/>
<path d="" fill="#000000" transform="translate(0,0)"/>
<path d="" fill="#000000" transform="translate(0,0)"/>
<path d="" fill="#000000" transform="translate(0,0)"/>
<path d="" fill="#000000" transform="translate(0,0)"/>
<path d="" fill="#000000" transform="translate(0,0)"/>
<path d="" fill="#000000" transform="translate(0,0)"/>
<path d="" fill="#000000" transform="translate(0,0)"/>
<path d="" fill="#000000" transform="translate(0,0)"/>
<path d="" fill="#000000" transform="translate(0,0)"/>
<path d="" fill="#000000" transform="translate(0,0)"/>
<path d="" fill="#000000" transform="translate(0,0)"/>
</svg>
